<svg width="102" height="34" viewBox="0 0 102 34" fill="none" xmlns="http://www.w3.org/2000/svg">
<g clip-path="url(#clip0_2124_32331)">
<path d="M29.4603 2.28125H2.96281C2.15277 2.28125 1.49609 2.93792 1.49609 3.74797V30.2454C1.49609 31.0555 2.15277 31.7121 2.96281 31.7121H29.4603C30.2703 31.7121 30.927 31.0555 30.927 30.2454V3.74797C30.927 2.93792 30.2703 2.28125 29.4603 2.28125Z" fill="#F6F8FF"/>
<path d="M10.661 20.1234C9.88906 19.3515 10.3522 17.933 11.9766 16.6946M10.661 20.1234C11.3815 20.8439 12.5684 19.8629 13.5205 18.8593L11.9766 16.6946M10.661 20.1234L10.8175 19.967C10.5079 19.6573 10.4269 19.2078 10.6279 18.6601C10.8311 18.1064 11.3195 17.4738 12.1107 16.8706L12.1111 16.8703C12.6227 16.4784 13.0157 16.1852 13.3542 15.9327C13.9646 15.4775 14.398 15.1542 15.03 14.622L15.0309 14.6212C15.6458 14.0979 15.7292 13.3052 15.6457 12.5792C15.5711 11.9313 15.3571 11.2797 15.2041 10.8142C15.1848 10.7554 15.1665 10.6996 15.1495 10.6471L15.1491 10.6461C14.7893 9.5514 14.2397 8.82734 13.516 8.37888C13.4136 8.31543 13.3082 8.25782 13.2001 8.20564H19.1463C18.975 8.293 18.8151 8.39339 18.6664 8.50692C18.0122 9.00667 17.6033 9.74103 17.4021 10.6679C17.1067 12.0053 16.8733 12.7485 16.6319 13.2312C16.3972 13.7007 16.1528 13.9294 15.7988 14.2331C15.4083 14.5657 15.0281 14.8811 14.6727 15.1759C14.088 15.6609 13.5705 16.0902 13.1851 16.4491C12.877 16.7361 12.6296 16.999 12.4989 17.2266C12.4337 17.3402 12.3824 17.4703 12.3889 17.6054C12.3962 17.7563 12.4736 17.878 12.5942 17.9609L12.5941 17.9611L12.6012 17.9655C12.7844 18.0815 13.0065 18.0519 13.1968 17.9882C13.396 17.9216 13.6208 17.798 13.859 17.6392C14.3374 17.3203 14.9133 16.8302 15.5183 16.2639C16.7307 15.1293 18.0893 13.6606 19.0698 12.5642L19.07 12.564C19.4777 12.1069 19.961 11.7558 20.4264 11.6103C20.8819 11.4678 21.3091 11.5225 21.664 11.8572L21.6653 11.8583C21.9315 12.1056 21.9786 12.4831 21.7866 12.9672C21.5946 13.4514 21.1774 13.9901 20.6151 14.4636C20.0431 14.9453 19.6383 15.2238 19.2573 15.4719C19.1861 15.5183 19.1152 15.5639 19.044 15.6098C18.7337 15.8096 18.4158 16.0143 18.0223 16.3121C16.9283 17.1331 16.6066 18.1117 16.6066 19.0893C16.6066 19.5709 16.6843 20.0498 16.7791 20.5036C16.8231 20.7141 16.8688 20.9113 16.9129 21.1018C16.9674 21.3369 17.0195 21.5618 17.0632 21.789C17.3978 23.5683 17.7929 24.6801 18.4538 25.3475C18.6398 25.5354 18.8439 25.6852 19.0679 25.8044H13.2173C13.4489 25.6888 13.6653 25.5449 13.8652 25.3665C14.6175 24.695 15.0918 23.5734 15.3129 21.7749C15.3672 21.3397 15.3882 20.9323 15.4077 20.5531C15.4094 20.5198 15.4112 20.4867 15.4129 20.4538C15.4343 20.0433 15.4572 19.6685 15.5207 19.3082C15.6452 18.6018 15.9264 17.945 16.6868 17.2471C16.9809 16.9788 17.334 16.6789 17.6983 16.3695L17.7188 16.3521C18.0888 16.0379 18.4688 15.7147 18.8007 15.4119C19.1305 15.1109 19.4231 14.8208 19.6128 14.5725C19.7066 14.4496 19.7862 14.3231 19.8275 14.2005C19.8689 14.0778 19.8845 13.9161 19.7785 13.7778L19.7785 13.7777C19.6375 13.5939 19.4253 13.5587 19.2282 13.5896C19.0373 13.6195 18.824 13.7142 18.6034 13.8421C18.1583 14.1003 17.6105 14.538 17.0235 15.0616C15.8461 16.1119 14.4672 17.5483 13.3605 18.7065L13.36 18.707C12.8864 19.2062 12.371 19.6812 11.8966 19.9444C11.6599 20.0757 11.45 20.1448 11.2717 20.1498C11.1025 20.1545 10.9528 20.1023 10.8175 19.967L10.661 20.1234ZM11.9766 16.6946C12.4943 16.298 12.8892 16.0035 13.2279 15.7509C13.8341 15.2988 14.2602 14.981 14.8875 14.4527L11.9766 16.6946Z" fill="black" stroke="black" stroke-width="0.442528"/>
<path d="M1.66614 1.00647H30.7593C31.5594 1.00647 32.208 1.65509 32.208 2.4552V31.5484C32.208 32.3485 31.5594 32.9971 30.7593 32.9971H1.66614C0.866029 32.9971 0.217409 32.3485 0.217409 31.5484V2.4552C0.217409 1.65509 0.866029 1.00647 1.66614 1.00647Z" stroke="#F6F8FF" stroke-width="0.434819" stroke-miterlimit="10"/>
</g>
<path d="M41.2773 6.38281H47.8763V27.6242H41.2773V6.38281Z" fill="#F6F8FF"/>
<path d="M56.0983 15.5591H63.5186C64.3494 15.5591 64.9913 15.3703 65.4445 14.9926C65.9165 14.615 66.1525 14.0675 66.1525 13.35C66.1525 12.6325 65.9165 12.0849 65.4445 11.7073C64.9913 11.3297 64.3494 11.1409 63.5186 11.1409H55.1637L58.1375 8.08212V27.6242H51.5385V6.38281H64.5099C66.1525 6.38281 67.5969 6.67547 68.8431 7.26079C70.0893 7.84611 71.0616 8.658 71.7602 9.69647C72.4588 10.7349 72.8081 11.9528 72.8081 13.35C72.8081 14.7094 72.4588 15.9178 71.7602 16.9752C71.0616 18.0136 70.0893 18.8255 68.8431 19.4108C67.5969 19.9773 66.1525 20.2605 64.5099 20.2605H56.0983V15.5591ZM58.9305 17.6832H66.2658L73.5728 27.6242H66.0109L58.9305 17.6832Z" fill="#F6F8FF"/>
<path d="M80.2167 23.8007V18.5329H94.7742V23.8007H80.2167ZM91.9703 6.38281L101.486 27.6242H94.4343L86.7308 9.24332H88.515L80.7832 27.6242H73.7594L83.2472 6.38281H91.9703Z" fill="#F6F8FF"/>
<defs>
<clipPath id="clip0_2124_32331">
<rect width="32.4254" height="32.4254" fill="white" transform="translate(0 0.789062)"/>
</clipPath>
</defs>
</svg>
